# xmcd CD database file
#
# Track frame offsets:
#	150
#	11273
#	27486
#	39918
#	56647
#	71370
#	83057
#	95737
#	111058
#	124665
#	139791
#	150673
#
# Disc length: 2206 seconds
#
# Revision: 0
# Processed by: cddbd v1.5.1PL0 Copyright (c) Steve Scherf et al.
# Submitted via: CDex 1.50
#
DISCID=92089c0c
DTITLE=Peter Denahy - Peter Denahy
DYEAR=2005
DGENRE=Country
TTITLE0=Wind Through The Brigalow
TTITLE1=One Quiet Day
TTITLE2=Frankie
TTITLE3=Clare (With Sara Storer)
TTITLE4=Grab A Rock
TTITLE5=Peppercorn Tree
TTITLE6=The Kitchen Girl
TTITLE7=What You Know
TTITLE8=The Bloke Who Serves You Beer
TTITLE9=Dream
TTITLE10=Heading Down To Dick's
TTITLE11=Always There
EXTD=YEAR: 2005
EXTT0=
EXTT1=
EXTT2=
EXTT3=
EXTT4=
EXTT5=
EXTT6=
EXTT7=
EXTT8=
EXTT9=
EXTT10=
EXTT11=
PLAYORDER=
